<svg width="87.000000" height="87.000000" viewBox="0 0 87 87" fill="none" xmlns="http://www.w3.org/2000/svg" xmlns:xlink="http://www.w3.org/1999/xlink">
	<desc>
			Created with Pixso.
	</desc>
	<defs>
		<clipPath id="clip2_19">
			<rect id="tray 1" width="87.000000" height="87.000000" fill="white" fill-opacity="0"/>
		</clipPath>
	</defs>
	<mask id="mask2_19" mask-type="alpha" maskUnits="userSpaceOnUse" x="0.000000" y="0.000000" width="87.000000" height="87.000000">
		<rect id="tray 1" width="87.000000" height="87.000000" fill="#FFFFFF" fill-opacity="0"/>
		<g clip-path="url(#clip2_19)">
			<path id="Vector" d="M18.2958 53.5947C17.8698 54.2129 18.0255 55.0596 18.6436 55.4854C19.2618 55.9116 20.1083 55.7559 20.5344 55.1377C20.5433 55.125 20.552 55.1113 20.5605 55.0981C25.2857 47.9463 33.2858 43.644 41.8578 43.6455C42.6086 43.6455 43.2172 43.0366 43.2172 42.2861C43.2172 41.5356 42.6086 40.9268 41.8578 40.9268C32.3747 40.9243 23.5238 45.6831 18.2958 53.5947Z" fill="#000000" fill-opacity="1.000000" fill-rule="nonzero"/>
			<path id="Vector" d="M85.6406 70.833L77.4844 70.833L77.4844 69.1909C77.516 60.3838 73.9245 51.9517 67.5528 45.8721C67.0248 45.3384 66.1642 45.3335 65.6303 45.8613C65.0964 46.3892 65.0916 47.25 65.6194 47.7837C65.6354 47.7998 65.6517 47.8159 65.6685 47.8311C71.5045 53.4004 74.794 61.124 74.7654 69.1909L74.7654 70.833L12.2344 70.833L12.2344 69.1909C12.2524 52.8379 25.5048 39.5854 41.8578 39.5674L45.1422 39.5674C47.6674 39.5659 50.1824 39.8853 52.6268 40.519C53.3461 40.7344 54.1036 40.3257 54.3189 39.6064C54.5342 38.8872 54.1257 38.1299 53.4064 37.9146C53.3735 37.9043 53.34 37.896 53.3063 37.8887C51.4289 37.4043 49.5117 37.0898 47.5779 36.9492L47.5779 32.7705C47.5779 32.02 46.9693 31.4111 46.2186 31.4111L40.7811 31.4111C40.0304 31.4111 39.4217 32.02 39.4217 32.7705L39.4217 36.9492C22.5643 38.2402 9.53772 52.2842 9.51544 69.1909L9.51544 70.833L1.35938 70.833C0.608643 70.833 0 71.4419 0 72.1924C0 72.9429 0.608643 73.5518 1.35938 73.5518L85.6406 73.5518C86.3914 73.5518 87 72.9429 87 72.1924C87 71.4419 86.3914 70.833 85.6406 70.833ZM42.1406 34.1299L44.8594 34.1299L44.8594 36.8486L42.1406 36.8486L42.1406 34.1299Z" fill="#000000" fill-opacity="1.000000" fill-rule="nonzero"/>
			<path id="Vector" d="M57.5478 30.3818C58.8134 31.5117 59.8125 32.4033 59.8125 34.2236C59.8125 36.0439 58.8134 36.9355 57.5478 38.0718C55.6239 39.4165 54.4478 41.5903 54.375 43.9365C54.375 44.687 54.9836 45.2959 55.7344 45.2959C56.4851 45.2959 57.0938 44.687 57.0938 43.9365C57.0938 42.1162 58.0929 41.2241 59.3585 40.0947C61.2835 38.748 62.4597 36.5718 62.5312 34.2236C62.4597 31.876 61.2835 29.6997 59.3585 28.354C58.0929 27.2241 57.0938 26.3325 57.0938 24.5137C57.0938 22.6948 58.0929 21.8042 59.3585 20.6748C61.2835 19.3301 62.4599 17.1548 62.5312 14.8076C62.5312 14.0571 61.9226 13.4482 61.1719 13.4482C60.4211 13.4482 59.8125 14.0571 59.8125 14.8076C59.8125 16.625 58.8134 17.5156 57.5478 18.645C55.6224 19.9902 54.446 22.166 54.375 24.5137C54.4467 26.8608 55.6229 29.0366 57.5478 30.3818Z" fill="#000000" fill-opacity="1.000000" fill-rule="nonzero"/>
			<path id="Vector" d="M65.704 30.3818C66.9696 31.5117 67.9688 32.4033 67.9688 34.2236C67.9688 36.0439 66.9696 36.9424 65.704 38.0664C63.7786 39.4121 62.6023 41.5884 62.5312 43.9365C62.5312 44.687 63.1399 45.2959 63.8906 45.2959C64.6414 45.2959 65.25 44.687 65.25 43.9365C65.25 42.1162 66.2491 41.2241 67.5147 40.0947C69.4398 38.748 70.616 36.5718 70.6875 34.2236C70.616 31.876 69.4398 29.6997 67.5147 28.354C66.2491 27.2241 65.25 26.3325 65.25 24.5137C65.25 22.6948 66.2491 21.8042 67.5147 20.6748C69.4398 19.3301 70.6161 17.1548 70.6875 14.8076C70.6875 14.0571 70.0789 13.4482 69.3281 13.4482C68.5774 13.4482 67.9688 14.0571 67.9688 14.8076C67.9688 16.625 66.9696 17.5156 65.704 18.645C63.7786 19.9902 62.6023 22.166 62.5312 24.5137C62.603 26.8608 63.7792 29.0366 65.704 30.3818Z" fill="#000000" fill-opacity="1.000000" fill-rule="nonzero"/>
			<path id="Vector" d="M73.8603 30.3818C75.1259 31.5117 76.125 32.4033 76.125 34.2236C76.125 36.0439 75.1259 36.9424 73.8603 38.0664C71.9349 39.4121 70.7585 41.5884 70.6875 43.9365C70.6875 44.687 71.2961 45.2959 72.0469 45.2959C72.7976 45.2959 73.4062 44.687 73.4062 43.9365C73.4062 42.1162 74.4054 41.2241 75.671 40.0947C77.596 38.748 78.7722 36.5718 78.8438 34.2236C78.7722 31.876 77.596 29.6997 75.671 28.354C74.4054 27.2241 73.4062 26.3325 73.4062 24.5137C73.4062 22.6948 74.4054 21.8042 75.671 20.6748C77.596 19.3301 78.7724 17.1548 78.8438 14.8076C78.8438 14.0571 78.2351 13.4482 77.4844 13.4482C76.7336 13.4482 76.125 14.0571 76.125 14.8076C76.125 16.625 75.1259 17.5156 73.8603 18.645C71.9349 19.9902 70.7585 22.166 70.6875 24.5137C70.7592 26.8608 71.9354 29.0366 73.8603 30.3818Z" fill="#000000" fill-opacity="1.000000" fill-rule="nonzero"/>
		</g>
	</mask>
	<g mask="url(#mask2_19)">
		<rect id="Rectangle 35" x="-16.000000" y="-13.000000" width="126.000000" height="104.000000" fill="#BC9060" fill-opacity="1.000000"/>
	</g>
</svg>
